<?xml version="1.0" encoding="UTF-8"?>
<svg xmlns="http://www.w3.org/2000/svg" width="200" height="60" viewBox="0 0 200 60" fill="none">
  <rect width="200" height="60" rx="8" fill="#1E3A8A" />
  <path d="M26.5 45H21.5V15H35.5C38.5 15 40.8333 15.8333 42.5 17.5C44.1667 19.1667 45 21.3333 45 24C45 26.6667 44.1667 28.8333 42.5 30.5C40.8333 32.1667 38.5 33 35.5 33H26.5V45ZM26.5 28H35.5C36.8333 28 37.8333 27.6667 38.5 27C39.1667 26.3333 39.5 25.3333 39.5 24C39.5 22.6667 39.1667 21.6667 38.5 21C37.8333 20.3333 36.8333 20 35.5 20H26.5V28Z" fill="#4ade80"/>
  <path d="M63.992 45.4C61.1253 45.4 58.592 44.7667 56.392 43.5C54.192 42.2333 52.492 40.4667 51.292 38.2C50.0587 35.9333 49.442 33.3667 49.442 30.5C49.442 27.6333 50.0587 25.0667 51.292 22.8C52.492 20.5333 54.192 18.7667 56.392 17.5C58.592 16.2333 61.1253 15.6 63.992 15.6C66.8587 15.6 69.392 16.2333 71.592 17.5C73.792 18.7667 75.5087 20.5333 76.742 22.8C77.9753 25.0667 78.592 27.6333 78.592 30.5C78.592 33.3667 77.9753 35.9333 76.742 38.2C75.5087 40.4667 73.792 42.2333 71.592 43.5C69.392 44.7667 66.8587 45.4 63.992 45.4ZM63.992 40.4C65.8587 40.4 67.4587 39.9333 68.792 39C70.1253 38.0667 71.1587 36.7667 71.892 35.1C72.592 33.4333 72.942 31.5667 72.942 29.5C72.942 27.4333 72.592 25.5667 71.892 23.9C71.1587 22.2333 70.1253 20.9333 68.792 20C67.4587 19.0667 65.8587 18.6 63.992 18.6C62.1253 18.6 60.5253 19.0667 59.192 20C57.8587 20.9333 56.8253 22.2333 56.092 23.9C55.3587 25.5667 54.992 27.4333 54.992 29.5C54.992 31.5667 55.3587 33.4333 56.092 35.1C56.8253 36.7667 57.8587 38.0667 59.192 39C60.5253 39.9333 62.1253 40.4 63.992 40.4Z" fill="#4ade80"/>
  <path d="M82.9798 45V15H87.9798V45H82.9798Z" fill="#4ade80"/>
  <path d="M107.288 45.4C103.821 45.4 101.088 44.4 99.088 42.4C97.0879 40.4 96.0879 37.6333 96.0879 34.1V15H101.088V33.9C101.088 36.0333 101.621 37.6667 102.688 38.8C103.755 39.9333 105.255 40.5 107.188 40.5C109.121 40.5 110.621 39.9333 111.688 38.8C112.755 37.6667 113.288 36.0333 113.288 33.9V15H118.288V34.1C118.288 37.6333 117.288 40.4 115.288 42.4C113.288 44.4 110.555 45.4 107.088 45.4H107.288Z" fill="#4ade80"/>
  <path d="M125.545 45V15H139.545C142.545 15 144.878 15.7333 146.545 17.2C148.212 18.6667 149.045 20.6 149.045 23C149.045 24.8 148.545 26.3 147.545 27.5C146.545 28.7 145.212 29.5333 143.545 30C145.545 30.3333 147.112 31.2 148.245 32.6C149.378 34 149.945 35.8 149.945 38C149.945 40.6 149.045 42.6667 147.245 44.2C145.445 45.7333 143.012 46.5 139.945 46.5H125.545V45ZM130.545 27.5H138.545C140.212 27.5 141.512 27.1 142.445 26.3C143.378 25.5 143.845 24.3667 143.845 22.9C143.845 21.4333 143.378 20.3 142.445 29.5C141.512 38.7 140.212 39.3 138.545 39.3H130.545V27.5ZM130.545 40H139.945C141.612 40 142.945 39.5667 143.945 38.7C144.945 37.8333 145.445 36.6 145.445 35C145.445 33.4 144.945 32.1667 143.945 31.3C142.945 30.4333 141.612 30 139.945 30H130.545V40Z" fill="#4ade80"/>
  <path d="M154.792 45V15H159.792V40H173.792V45H154.792Z" fill="#4ade80"/>
  <path d="M159.792 30H171.792V35H159.792V30Z" fill="#4ade80"/>
</svg>